<svg baseProfile="full" height="28" version="1.1" viewBox="0 0 52 28" width="52" xmlns="http://www.w3.org/2000/svg" xmlns:ev="http://www.w3.org/2001/xml-events" xmlns:xlink="http://www.w3.org/1999/xlink"><defs /><g><path d="M-6.3446105428796225 25.620771046420142Q-6.388670338316286 25.444531864673486 -6.388670338316286 25.334382376081827Q-6.388670338316286 24.91581431943352 -6.091266719118805 24.530291109362707Q-5.793863099921322 24.144767899291896 -5.419354838709677 23.990558615263573L-5.243115656963021 23.946498819826907Q-5.154996066089693 23.946498819826907 -5.132966168371361 24.056648308418566Q-5.1109362706530295 24.16679779701023 -5.1109362706530295 24.18882769472856Q-4.934697088906373 25.57671125098348 -4.218725413060582 26.303697875688435Q-3.5027537372147917 27.03068450039339 -2.313139260424862 27.03068450039339Q-0.9472856018882769 27.03068450039339 -0.11014948859166013 25.741935483870968Q0.7269866247049567 24.453186467348544 1.145554681353265 21.69944925255704L2.6876475216365066 11.785995279307633Q2.819826907946499 10.99291896144768 2.819826907946499 10.6624704956727Q2.819826907946499 10.332022029897718 2.6435877261998426 10.332022029897718Q2.4453186467348544 10.332022029897718 2.136900078678206 10.6624704956727Q1.8284815106215577 10.99291896144768 1.5641227380015736 11.43351691581432Q1.4760031471282455 11.565696302124312 1.3658536585365852 11.752950432730135Q1.2557041699449252 11.940204563335957 1.189614476789929 11.995279307631787Q1.1235247836349331 12.050354051927616 1.057435090479937 12.050354051927616Q0.925255704169945 12.050354051927616 0.925255704169945 11.808025177025964Q0.925255704169945 11.411487018095988 1.4099134539732494 10.651455546813533Q1.8945712037765539 9.891424075531079 2.5444531864673485 9.30763178599528Q3.194335169158143 8.723839496459481 3.678992918961448 8.723839496459481Q4.075531077891424 8.723839496459481 4.262785208497246 9.021243115656965Q4.450039339103069 9.318646734854447 4.405979543666405 9.803304484657751Q4.339889850511408 10.464201416207711 4.119590873328088 11.785995279307633Q3.987411487018096 12.53501180173092 3.943351691581432 12.821400472069238H3.965381589299764Q4.8245476003147125 11.257277734067664 6.025177025963808 9.990558615263573Q7.225806451612903 8.723839496459481 8.107002360346184 8.723839496459481Q8.745869394177813 8.723839496459481 8.988198269079465 9.36270653029111Q9.230527143981117 10.001573564122738 9.230527143981117 11.389457120377656Q9.230527143981117 13.28402832415421 8.371361132966168 15.167584579071598Q7.512195121951219 17.051140833988985 6.1573564122738 18.240755310778916Q4.802517702596381 19.430369787568843 3.3705743509047994 19.430369787568843Q3.1723052714398112 19.430369787568843 2.996066089693155 19.364280094413846L2.6215578284815106 21.567269866247052Q2.29110936270653 23.461841070023603 1.5090479937057435 24.926829268292682Q0.7269866247049567 26.39181746656176 -0.4075531077891424 27.19590873328088Q-1.5420928402832415 28.0 -2.8859166011014947 28.0Q-4.075531077891424 28.0 -5.022816679779701 27.37214791502754Q-5.970102281667978 26.744295830055076 -6.3446105428796225 25.620771046420142ZM7.622344610542879 11.896144767899294Q7.622344610542879 11.169158143194336 7.512195121951219 10.849724626278523Q7.40204563335956 10.530291109362707 7.159716758457908 10.530291109362707Q6.564909520062942 10.530291109362707 5.749803304484658 11.455546813532653Q4.934697088906373 12.380802517702598 4.273800157356412 13.746656176239183Q3.6129032258064515 15.112509834775768 3.4366640440597953 16.34618410700236L3.216365066876475 17.712037765538945Q3.5688434303697876 17.932336742722267 3.899291896144768 18.020456333595597Q4.229740361919748 18.108575924468923 4.648308418568057 18.108575924468923Q5.485444531864673 18.108575924468923 6.168371361132966 17.106215578284818Q6.851298190401259 16.10385523210071 7.236821400472069 14.63886703383163Q7.622344610542879 13.173878835562551 7.622344610542879 11.896144767899294Z M10.530291109362707 16.56648308418568Q10.530291109362707 14.936270653029112 11.312352478363493 13.074744295830056Q12.09441384736428 11.213217938631 13.328088119590873 9.96852871754524Q14.561762391817467 8.723839496459481 15.81746656176239 8.723839496459481Q16.963021243115655 8.723839496459481 16.963021243115655 10.1117230527144Q16.963021243115655 11.235247836349332 16.302124311565695 12.314712824547602Q15.641227380015735 13.39417781274587 14.528717545239967 14.22029897718332Q13.416207710464201 15.046420141620771 12.09441384736428 15.487018095987413Q12.09441384736428 16.676632572777343 12.479937057435091 17.20535011801731Q12.8654602675059 17.734067663257278 13.61447678992919 17.734067663257278Q14.407553107789141 17.734067663257278 15.068450039339103 17.22738001573564Q15.729346970889065 16.720692368214007 16.191974822974036 15.839496459480724Q16.258064516129032 15.707317073170731 16.32415420928403 15.619197482297404Q16.390243902439025 15.531077891424076 16.500393391030684 15.531077891424076Q16.67663257277734 15.531077891424076 16.67663257277734 15.795436664044061Q16.67663257277734 16.390243902439025 16.081825334382376 17.271439811172307Q15.487018095987413 18.152635719905586 14.561762391817467 18.791502753737213Q13.636506687647522 19.430369787568843 12.689221085759245 19.430369787568843Q11.697875688434303 19.430369787568843 11.114083398898504 18.67033831628639Q10.530291109362707 17.910306845003934 10.530291109362707 16.56648308418568ZM15.553107789142407 11.213217938631Q15.553107789142407 10.177812745869394 14.82612116443745 10.177812745869394Q14.231313926042485 10.177812745869394 13.691581431943352 10.816679779701023Q13.151848937844218 11.455546813532653 12.78835562549174 12.40283241542093Q12.424862313139261 13.350118017309207 12.292682926829269 14.231313926042487Q12.424862313139261 14.319433516915815 12.799370574350904 14.319433516915815Q13.372147915027536 14.319433516915815 14.022029897718332 13.911880409126672Q14.671911880409127 13.50432730133753 15.112509834775768 12.799370574350906Q15.553107789142407 12.094413847364281 15.553107789142407 11.213217938631Z M18.92368214004721 19.320220298977183Q18.92368214004721 19.254130605822187 19.055861526357198 19.033831628638865Q19.18804091266719 18.813532651455546 19.254130605822187 18.41699449252557Q19.342250196695517 17.9543666404406 19.408339889850513 17.56884343036979Q19.47442958300551 17.183320220298977 19.540519276160506 16.852871754523996Q20.091266719118806 13.834775767112511 20.27852084972463 12.634146341463415Q20.465774980330448 11.43351691581432 20.443745082612118 10.882769472856019Q20.443745082612118 10.596380802517704 20.39968528717545 10.464201416207711Q20.355625491738788 10.332022029897718 20.201416207710466 10.332022029897718Q20.003147128245477 10.332022029897718 19.69472856018883 10.6624704956727Q19.38630999213218 10.99291896144768 19.121951219512194 11.43351691581432Q19.011801730920535 11.631785995279309 18.923682140047205 11.774980330448466Q18.83556254917388 11.918174665617624 18.78048780487805 11.98426435877262Q18.72541306058222 12.050354051927616 18.659323367427223 12.050354051927616Q18.571203776553894 12.050354051927616 18.52714398111723 11.98426435877262Q18.483084185680568 11.918174665617624 18.483084185680568 11.808025177025964Q18.483084185680568 11.389457120377656 18.956726986624705 10.640440597954367Q19.430369787568843 9.891424075531079 20.080251770259636 9.30763178599528Q20.730133752950433 8.723839496459481 21.23682140047207 8.723839496459481Q21.65538945712038 8.723839496459481 21.820613690007868 9.054287962234461Q21.985837922895357 9.384736428009441 21.985837922895357 10.089693154996066Q21.985837922895357 11.059008654602676 21.567269866247052 12.711250983477576H21.611329661683715Q23.704169944925255 8.723839496459481 25.48859166011015 8.723839496459481Q25.951219512195124 8.723839496459481 26.204563335955942 8.977183320220298Q26.45790715971676 9.230527143981117 26.45790715971676 9.69315499606609Q26.45790715971676 10.177812745869394 26.248623131392606 10.68450039339103Q26.03933910306845 11.191188040912667 25.741935483870968 11.521636506687647Q25.444531864673486 11.852084972462627 25.202202989771834 11.852084972462627Q25.047993705743508 11.852084972462627 25.092053501180175 11.65381589299764Q25.15814319433517 11.345397324940993 25.15814319433517 11.169158143194336Q25.15814319433517 10.640440597954367 24.585365853658537 10.640440597954367Q23.902439024390244 10.640440597954367 23.21951219512195 11.43351691581432Q22.53658536585366 12.226593233674272 22.018882769472857 13.372147915027538Q21.501180173092052 14.517702596380804 21.302911093627067 15.46498819826908Q21.03855232100708 16.478363493312354 20.972462627852085 17.579858379228956Q20.928402832415422 17.998426435877263 20.586939417781274 18.428009441384738Q20.24547600314713 18.857592446892212 19.804878048780488 19.143981117230528Q19.364280094413846 19.430369787568843 19.121951219512194 19.430369787568843Q19.03383162863887 19.430369787568843 18.97875688434304 19.397324940991346Q18.92368214004721 19.364280094413846 18.92368214004721 19.320220298977183Z M26.942564909520065 17.998426435877263Q26.942564909520065 17.579858379228956 27.03068450039339 17.00708103855232L28.33044846577498 8.327301337529505Q28.793076317859953 5.33123524783635 29.453973249409913 3.70102281667978Q30.114870180959876 2.0708103855232096 31.04012588512982 1.3438237608182533Q31.56884343036979 0.9252557041699454 32.14162077104642 0.7269866247049581Q32.71439811172306 0.5287175452399708 33.904012588512984 0.2423288749016521Q34.45476003147128 0.1321793863099927 34.60896931549961 0.06608969315499635Q34.76317859952793 0.0 34.8072383949646 0.0Q34.96144767899292 0.0 34.96144767899292 0.17623918174665576Q34.96144767899292 0.2643587726199854 34.86231313926042 0.4405979543666412Q34.76317859952793 0.6168371361132969 34.542879622344614 0.815106215578286Q34.30055074744296 1.0354051927616048 34.080251770259636 1.1125098347757678Q33.85995279307632 1.1896144767899308 33.55153422501967 1.2116443745082606Q32.27380015735641 1.3438237608182533 31.70102281667978 2.0047206923682133Q30.621557828481514 3.238394964594809 30.114870180959876 6.564909520062944L28.506687647521638 16.940991345397325Q28.484657749803304 17.09520062942565 28.484657749803304 17.31549960660897Q28.484657749803304 17.800157356412274 28.771046420141623 17.800157356412274Q29.431943351691583 17.800157356412274 30.31313926042486 15.839496459480724Q30.40125885129819 15.597167584579072 30.555468135326514 15.597167584579072Q30.70967741935484 15.597167584579072 30.70967741935484 15.90558615263572Q30.70967741935484 16.632572777340677 30.19197482297404 17.469708890637293Q29.674272226593235 18.306845003933912 28.96931549960661 18.868607395751376Q28.264358772619985 19.430369787568843 27.735641227380018 19.430369787568843Q27.31707317073171 19.430369787568843 27.129819040125888 19.0228166797797Q26.942564909520065 18.61526357199056 26.942564909520065 17.998426435877263Z M35.07159716758458 7.247836349331235 35.33595594020456 5.705743509047995Q35.44610542879622 5.066876475216366 35.809598741148704 4.72541306058222Q36.17309205350118 4.383949645948073 36.72383949645948 4.383949645948073H36.81195908733281Q36.9441384736428 4.383949645948073 36.9771833202203 4.428009441384737Q37.010228166797795 4.472069236821401 36.98819826907946 4.604248623131394L36.74586939417782 6.124311565696303Q36.65774980330448 6.7411487018096 36.28324154209284 7.104642014162078Q35.908733280881194 7.468135326514556 35.3579858379229 7.468135326514556H35.26986624704957Q35.049567269866245 7.468135326514556 35.07159716758458 7.247836349331235ZM33.265145554681354 18.41699449252557Q33.265145554681354 17.910306845003934 33.397324940991346 17.249409913453974L34.45476003147128 11.367427222659323Q34.542879622344614 10.794649881982691 34.542879622344614 10.6624704956727Q34.542879622344614 10.332022029897718 34.34461054287962 10.332022029897718Q34.080251770259636 10.332022029897718 33.70574350904799 10.750590086546026Q33.33123524783635 11.169158143194336 32.89063729346971 12.07238394964595Q32.80251770259638 12.336742722265933 32.67033831628639 12.336742722265933Q32.5381589299764 12.336742722265933 32.5381589299764 12.116443745082613Q32.5381589299764 11.587726199842646 33.01180173092054 10.761605035405193Q33.48544453186467 9.935483870967742 34.17938630999213 9.329661683713612Q34.87332808811959 8.723839496459481 35.468135326514556 8.723839496459481Q36.151062155782846 8.723839496459481 36.151062155782846 9.69315499606609Q36.151062155782846 10.155782848151063 36.01888276947285 10.904799370574352L34.87332808811959 17.271439811172307L34.829268292682926 17.557828481510622Q34.829268292682926 17.800157356412274 35.02753737214792 17.800157356412274Q35.2918961447679 17.800157356412274 35.66640440597954 17.3705743509048Q36.040912667191186 16.940991345397325 36.48151062155783 16.059795436664047Q36.59166011014949 15.817466561762393 36.70180959874115 15.817466561762393Q36.83398898505114 15.817466561762393 36.83398898505114 16.10385523210071Q36.83398898505114 16.610542879622344 36.360346184107 17.414634146341463Q35.88670338316287 18.218725413060582 35.20377655389457 18.824547600314713Q34.52084972462628 19.430369787568843 33.97010228166798 19.430369787568843Q33.265145554681354 19.430369787568843 33.265145554681354 18.41699449252557Z M38.06766325727774 18.06451612903226Q38.02360346184107 17.888276947285604 38.21085759244689 17.502753737214793Q38.398111723052715 17.11723052714398 38.70653029110937 16.742722265932336Q38.88276947285602 16.54445318646735 38.99291896144768 16.54445318646735Q39.10306845003934 16.54445318646735 39.16915814319434 16.720692368214007Q39.830055074744294 18.26278520849725 40.997639653815895 18.26278520849725Q41.59244689221086 18.26278520849725 41.93391030684501 17.899291896144767Q42.27537372147915 17.53579858379229 42.27537372147915 16.918961447678996Q42.27537372147915 16.081825334382376 41.32808811959087 14.760031471282456L40.8654602675059 14.099134539732495Q40.33674272226593 13.350118017309207 40.127458693941776 12.865460267505902Q39.91817466561763 12.380802517702598 39.91817466561763 11.830055074744298Q39.91817466561763 10.948859166011015 40.39181746656176 10.24390243902439Q40.8654602675059 9.538945712037766 41.636506687647525 9.131392604248624Q42.40755310778914 8.723839496459481 43.24468922108576 8.723839496459481Q44.83084185680566 8.723839496459481 44.83084185680566 9.803304484657751Q44.83084185680566 10.199842643587727 44.54445318646735 10.596380802517704Q44.390243902439025 10.860739575137687 44.280094413847365 10.860739575137687Q44.14791502753737 10.860739575137687 44.03776553894571 10.596380802517704Q43.79543666404406 10.177812745869394 43.45397324940991 9.990558615263573Q43.112509834775764 9.803304484657751 42.5837922895358 9.803304484657751Q41.966955153422504 9.803304484657751 41.59244689221086 10.133752950432731Q41.217938630999214 10.464201416207711 41.217938630999214 10.970889063729349Q41.217938630999214 11.257277734067664 41.405192761605036 11.620771046420142Q41.59244689221086 11.98426435877262 42.12116443745083 12.73328088119591L42.5837922895358 13.372147915027538Q43.2006294256491 14.187254130605822 43.44295830055075 14.771046420141621Q43.6852871754524 15.35483870967742 43.6852871754524 15.993705743509048Q43.6852871754524 16.808811959087333 43.15656963021243 17.612903225806452Q42.62785208497246 18.41699449252557 41.746656176239185 18.923682140047205Q40.8654602675059 19.430369787568843 39.87411487018096 19.430369787568843Q39.19118804091267 19.430369787568843 38.70653029110936 19.055861526357198Q38.221872541306055 18.681353265145557 38.06766325727774 18.06451612903226Z " fill="rgb(0,0,0)" transform="translate(6.388670338316286, 0)" /></g></svg>